# This file uses centimeters as units for non-parametric coordinates.

mtllib ventana3.mtl
g default
v -0.090352 -0.435932 -0.028187
v -0.065869 -0.435932 -0.028187
v 0.040225 0.564069 -0.028187
v -0.033225 -0.435932 -0.028187
v -0.090352 0.564069 -0.028187
v 0.040225 -0.435932 -0.028187
v -0.008742 -0.435932 1.221813
v -0.041386 -0.435932 1.221813
v -0.065869 -0.435932 1.221813
v -0.090352 -0.435932 1.221813
v 0.040225 0.564069 1.221813
v 0.040225 -0.435932 1.221813
v -0.090352 0.564069 1.221813
v -0.033225 -0.435932 1.221813
v -0.041386 -0.435932 -0.028187
v -0.008742 -0.435932 -0.028187
vt 0.280665 0.631026
vt 0.279625 0.631026
vt 0.616861 0.382561
vt 0.591976 0.700860
vt 0.279625 0.633799
vt 0.616861 0.296593
vt 0.591976 0.614892
vt 0.280665 0.633799
vt 0.282398 0.633799
vt 0.282398 0.631026
vt 0.281878 0.631026
vt 0.281878 0.633799
vt 0.677944 0.614892
vt 0.375732 0.221939
vt 0.677944 0.700860
vt 0.281358 0.633799
vt 0.281358 0.631026
vt 0.375732 0.228040
vt 0.281185 0.631026
vt 0.281185 0.633799
vt -0.000000 0.000000
vt 1.000000 0.000000
vt 1.000000 1.000000
vt -0.000000 1.000000
vt 1.000000 1.000000
vt 1.000000 0.000000
vt -0.000000 0.000000
vt -0.000000 1.000000
vt 0.369631 0.228040
vt 0.369631 0.221939
vt 0.530893 0.296593
vt 0.530893 0.382561
vn 0.000000 -1.000000 0.000000
vn 0.000000 -1.000000 0.000000
vn 0.000000 -1.000000 0.000000
vn 0.000000 -1.000000 0.000000
vn -1.000000 0.000000 0.000000
vn -1.000000 0.000000 0.000000
vn -1.000000 0.000000 0.000000
vn -1.000000 0.000000 0.000000
vn 0.000000 -1.000000 0.000000
vn 0.000000 -1.000000 0.000000
vn 0.000000 -1.000000 0.000000
vn 0.000000 -1.000000 0.000000
vn 1.000000 0.000000 0.000000
vn 1.000000 0.000000 0.000000
vn 1.000000 0.000000 0.000000
vn 1.000000 0.000000 0.000000
vn 0.000000 -1.000000 0.000000
vn 0.000000 -1.000000 0.000000
vn 0.000000 -1.000000 0.000000
vn 0.000000 -1.000000 0.000000
vn 0.000000 -1.000000 0.000000
vn 0.000000 -1.000000 0.000000
vn 0.000000 -1.000000 0.000000
vn 0.000000 -1.000000 0.000000
vn 0.000000 -1.000000 0.000000
vn 0.000000 -1.000000 0.000000
vn 0.000000 -1.000000 0.000000
vn 0.000000 -1.000000 0.000000
vn 0.000000 0.000000 1.000000
vn 0.000000 0.000000 1.000000
vn 0.000000 0.000000 1.000000
vn 0.000000 0.000000 1.000000
vn 0.000000 1.000000 0.000000
vn 0.000000 1.000000 0.000000
vn 0.000000 1.000000 0.000000
vn 0.000000 1.000000 0.000000
vn 0.000000 0.000000 -1.000000
vn 0.000000 0.000000 -1.000000
vn 0.000000 0.000000 -1.000000
vn 0.000000 0.000000 -1.000000
s off
g pasted__pasted__pasted__polySurface11 pasted__pasted__pasted__pasted__group1_pasted__pasted__group_pasted__pasted__pasted__pCube1 pasted__pasted__group36 pasted__group37 group48
usemtl lambert9SG
f 16/1/1 6/2/2 12/5/3 7/8/4
f 5/25/5 1/26/6 10/27/7 13/28/8
f 10/9/9 1/10/10 2/11/11 9/12/12
f 12/21/13 6/22/14 3/23/15 11/24/16
f 8/16/17 15/17/18 4/19/19 14/20/20
f 9/12/21 2/11/22 15/17/23 8/16/24
f 14/20/25 4/19/26 16/1/27 7/8/28
f 12/14/29 11/18/30 13/29/31 10/30/32
f 5/4/33 13/7/34 11/13/35 3/15/36
f 3/3/37 6/6/38 1/31/39 5/32/40
